<svg fill="none" height="122" viewBox="0 0 387 122" width="387" xmlns="http://www.w3.org/2000/svg"><path d="m108.4 73.2999c-4.2-1.4-19.1002-5.3-29.3002 6.5-2.1-8.5-9.9-14.3-18.6-14.1-8.7-.3-16.5 5.6-18.6 14.1-10.1-11.6-24.6-8.1-29.1-6.6.2 3.8 1.5 7.5 3.8 10.6 13 18.1001 31.4 24.7001 43.9 24.9001h.2.1.3c12.5-.2 30.9-6.8 43.8002-24.9001 2-3 3.3-6.7 3.5-10.5z" fill="#fff"/><path d="m60.6 0c33.5 0 60.6 27.1 60.6 60.6s-27.1 60.6-60.6 60.6-60.6-27.1-60.6-60.6 27.2-60.6 60.6-60.6z" fill="#cf1324"/><path d="m25 31.5002c3.1-3.6 7-6.6 11.2-8.8-8-9.3-14.4-13.9-17.2-15-2.4 7.5.4 19.2 3.1 27.4.9-1.2 1.9-2.4 2.9-3.6z" fill="#ea5d0c"/><path d="m96.0004 31.5002c.9 1 1.7 2 2.5 3.1 2.5996-8.2 5.2996-19.6 2.8996-26.9-2.7996 1.1-9.0996 5.6-16.9996 14.8 4.4 2.2 8.4 5.3 11.6 9z" fill="#ea5d0c"/><path d="m96.0002 31.5c-3.3-3.7-7.2-6.8-11.6-9 7.9-9.1 14.2-13.69998 16.9998-14.79998 2.4 7.29998-.3 18.69998-2.8998 26.89998-.8-1.1-1.6-2.1-2.5-3.1zm-71 0c-1 1.2-2 2.4-2.9 3.7-2.7-8.2-5.5-20-3.1-27.39998 2.8 1.1 9.2 5.69998 17.2 14.99998-4.2 2.1-8 5.1-11.2 8.7zm83.1998 37.2c-1.5-10.1-3.8-18.8-7.3-26 2.9-6.9 4.9-14.2 5.9-21.6.7-5.9.5-11.99997-1.8-16.99997-.5-1.1-1.7-1.7-3-1.5-2 .4-5.5998 1.69999-10.3998 5.59999-5 4.09998-9.5 8.79998-13.4 13.99998-5.6-1.7-11.5-2.6-17.4-2.6-.1 0-.2 0-.3 0s-.2 0-.3 0c-6.1-.1-12.1.9-17.9 2.7-4-5.2-8.5-10-13.6-14.19997-4.9-3.9-8.4-5.20001-10.4-5.60001-1.2-.2-2.4.4-3 1.5-2.3 5-2.5 10.99998-1.8 16.89998 1.1 7.7 3.2 15.2 6.2 22.3-3.3 7.1-5.5 15.6-7 25.4-.2 1.5-.3 3-.2 4.5 4.5-1.5 19.1-5 29.1 6.6 2.1-8.5 9.9-14.3 18.6-14.1 3.1-.1 6.2.6 9 2 4.8 2.5 8.3 6.9 9.6 12.1 10.2-11.8 25.0998-8 29.2998-6.5.4-1.4.3-3 .1-4.5z" fill="#f28f3c"/><path d="m73.8996 90.9998c-.5 1-.8 2-.8 3.1 0 .3-.3.6-.7.6h-.7l-1.6 4.2c0 .1-.2.2-.3.2s-.1 0-.2-.1c-.3-.4-.6-.7-.8-1.1-.1-.1-.1-.2-.1-.3v-4.8c-2.7.4-5.5.6-8.2.5h-.2c-2.7 0-5.5-.2-8.2-.6v4.8c0 .1 0 .2-.1.3-.2.4-.5.8-.8 1.1-.1.1-.3.1-.4 0l-.1-.1-1.6-4.2h-.7c-.3 0-.6-.2-.7-.6 0-1.1-.3-2.1-.8-3.1-.1-.2 0-.4.2-.5h.1c1.3 0 4.1-.1 4.7 0h4.9c.5-.8 1.2-1.3 2-1.6v-3.3c-5.9-.7-6.6-6.1-6.5-9.3 0-1.3 1.1-2.4 2.4-2.4h11c1.3 0 2.4 1 2.4 2.4.1 3.2-.6 8.5-6.5 9.3v3.3c.8.3 1.6.9 2 1.6h4.9 4.7c.2 0 .4.2.4.4.3.1.3.1.3.2z" fill="#22263f"/><path d="m73.8998 90.9999c-.5 1-.8 2-.8 3.1 0 .3-.3.6-.7.6h-.7l-1.6 4.2c0 .1-.2.2-.3.2s-.1 0-.2-.1c-.3-.4-.6-.7-.8-1.1-.1-.1-.1-.2-.1-.3v-4.8c-2.7.4-5.5.6-8.2.6h-.2c-2.7 0-5.5-.2-8.2-.6v4.8c0 .1 0 .2-.1.3-.2.4-.5.8-.8 1.1-.1.1-.3.1-.4 0l-.1-.1-1.6-4.2h-.7c-.3 0-.6-.2-.7-.6 0-1.1-.3-2.1-.8-3.1-.1-.2 0-.4.2-.5h.1c1.3 0 4.1-.1 4.7-.1h4.9c.5-.8 1.2-1.3 2-1.6v-3.3c-5.9-.7-6.6-6.1-6.5-9.3 0-1.3 1.1-2.4 2.4-2.4h11c1.3 0 2.4 1 2.4 2.4.1 3.2-.6 8.5-6.5 9.3v3.3c.8.3 1.6.9 2 1.6h4.9c.6 0 3.4 0 4.7.1.2 0 .4.2.4.4.3 0 .3 0 .3.1zm-7.6 5c0 .7-.4 1.3-1.1 1.5-.1 0-.2 0-.3 0-.9 0-.9-1.1-1.9-1.1-.9 0-1.1 2.7-2.5 2.8 0 0 0 0-.1 0-1.3-.2-1.5-2.8-2.4-2.8s-1 1.1-1.9 1.1c-.1 0-.2 0-.3 0-.7-.2-1.1-.8-1.1-1.5v-.8h11.6zm42.1002-22.7c-4.2-1.4-19.1002-5.3-29.3002 6.5-1.4-5.2-4.9-9.6-9.6-12.1-2.8-1.3-5.9-2-9-2-8.7-.3-16.5 5.6-18.6 14.1-10.1-11.6-24.6-8.1-29.1-6.6.2 3.8 1.5 7.5 3.8 10.6 13 18.1001 31.4 24.7001 43.9 24.9001h.2.1.3c4-.1 7.9-.7 11.7-1.8 13-3.8 24.4-12.0001 32.2002-23.1001 1.9-3 3.2-6.7 3.4-10.5z" fill="#fff"/><path d="m66.3002 95.2002v.8c0 .7-.4 1.3-1.1 1.5-.1 0-.2 0-.3 0-.9 0-.9-1.1-1.9-1.1s-1.1 2.7-2.5 2.8c0 0 0 0-.1 0-1.3-.2-1.5-2.8-2.4-2.8s-1 1.1-1.9 1.1c-.1 0-.2 0-.3 0-.7-.2-1.1-.8-1.1-1.5v-.8z" fill="#22263f"/><path d="m89.0003 55.7998-.5-4.2c0-.7-.6-1.3-1.3-1.3-.2 0-.3 0-.5.1-4.5 1.7-17.4 7.6-15.9 11.4 1.3 2.6 11.8-.2 17-3.8.8-.4 1.2-1.3 1.2-2.2z" fill="#22263f"/><path d="m32.2998 55.7998.5-4.2c0-.7.6-1.3 1.3-1.3.2 0 .3 0 .4.1 4.5 1.7 17.4 7.6 15.9 11.4-1.3 2.6-11.8-.2-17-3.8-.7-.4-1.1-1.3-1.1-2.2z" fill="#22263f"/><g fill="#fff"><path d="m49.5999 49.0998c-2.6-.2-7.9-.7-9.6-1.8-2.2-1.4-1.3-7.8 6.7-6.9 6.1.7 6.9 4.9 5.7 7.3-.6 1-1.7 1.5-2.8 1.4z"/><path d="m71.7002 49.0998c2.6-.2 7.9-.7 9.6-1.8 2.2-1.4 1.3-7.8-6.7-6.9-6.1.7-6.9 4.9-5.7 7.3.5 1 1.7 1.5 2.8 1.4z"/><path d="m145.3 80.2 6.4-9c4.6 3.6 10.2 5.5 16.3 5.5 6.2 0 10.2-2.3 10.2-5.9 0-3.4-3.3-5.2-10.7-6-14.4-1.6-20.8-6.5-20.8-16 0-9.7 8.7-16.3 21.6-16.3 7.4 0 14.6 2.2 20 6l-5.8 8.7c-4-2.8-8.7-4.3-13.6-4.3-6.1 0-10.1 2.2-10.1 5.6 0 3.3 2.9 5 10.3 5.9 14.3 1.7 21.2 7.1 21.2 16.6 0 10-9 16.7-22.2 16.7-8.6-.1-16.9-2.8-22.8-7.5z"/><path d="m234.4 65.4002v21h-11.8v-20.3c0-4.8-2.5-7.7-6.7-7.7-4.7 0-7.8 3.4-7.8 8.4v19.6h-11.8v-52.7h11.8v19.6c2.8-3.2 6.6-4.9 11.4-4.9 9.2 0 14.9 6.6 14.9 17z"/><path d="m241.3 39.1001c0-3.8 2.9-6.5 6.9-6.5s6.9 2.7 6.9 6.5-2.9 6.4-6.9 6.4-6.9-2.6-6.9-6.4zm1 10.1h11.8v37.2h-11.8z"/><path d="m303.6 67.8002c0 11.4-7.4 19.4-17.8 19.4-5 0-9.3-1.8-12.3-5.2l-.8 4.4h-10.2v-52.7h11.8v19.1c3-2.8 6.9-4.3 11.5-4.3 10.4 0 17.8 7.9 17.8 19.3zm-20.7 9.4c5.3 0 8.9-3.8 8.9-9.4s-3.6-9.4-8.9-9.4c-5.2 0-8.8 3.8-8.8 9.4s3.6 9.4 8.8 9.4z"/><path d="m307.3 80.7999c0-3.8 2.9-6.4 6.9-6.4 3.9 0 6.8 2.6 6.8 6.4 0 3.7-2.9 6.4-6.8 6.4-4 0-6.9-2.7-6.9-6.4z"/><path d="m327 39.1001c0-3.8 2.9-6.5 6.9-6.5s6.9 2.7 6.9 6.5-2.9 6.4-6.9 6.4-6.9-2.6-6.9-6.4zm1 10.1h11.8v37.2h-11.8z"/><path d="m346 67.7999c0-11.6 7.9-19.4 20.4-19.4 12.6 0 20.5 7.8 20.5 19.4s-7.9 19.4-20.5 19.4c-12.5.1-20.4-7.8-20.4-19.4zm20.4 9.4c5.3 0 8.7-4 8.7-9.4s-3.5-9.4-8.7-9.4-8.7 4-8.7 9.4 3.5 9.4 8.7 9.4z"/></g></svg>