<svg width="168" height="39" viewBox="0 0 168 39" fill="none" xmlns="http://www.w3.org/2000/svg">
<mask id="mask0_5090_193891" style="mask-type:luminance" maskUnits="userSpaceOnUse" x="0" y="0" width="39" height="39">
<path d="M38.0078 0.0136719H0.0078125V38.0137H38.0078V0.0136719Z" fill="white"/>
</mask>
<g mask="url(#mask0_5090_193891)">
<path d="M33.9602 22.9907C32.6305 22.5401 27.9712 21.3423 24.7734 25.0346C24.1031 22.3753 21.6745 20.5401 18.9382 20.628H18.9272C16.191 20.5401 13.7514 22.3753 13.0811 25.0346C9.92724 21.3973 5.3668 22.5072 3.96021 22.9687H3.94922C4.01515 24.1665 4.43274 25.3203 5.12504 26.2984C9.20197 31.9687 14.9602 34.0456 18.8723 34.1006C18.8833 34.1006 18.9053 34.1006 18.9272 34.1006H18.9602C18.9932 34.1006 19.0152 34.1006 19.0481 34.1006C22.9602 34.0456 28.7184 31.9687 32.7954 26.2984C33.4877 25.3203 33.8943 24.1775 33.9602 22.9907Z" fill="white"/>
</g>
<mask id="mask1_5090_193891" style="mask-type:luminance" maskUnits="userSpaceOnUse" x="0" y="0" width="39" height="39">
<path d="M38.0078 0.0136719H0.0078125V38.0137H38.0078V0.0136719Z" fill="white"/>
</mask>
<g mask="url(#mask1_5090_193891)">
<path d="M18.9922 0.0136719C29.4867 0.0136719 37.9922 8.51917 37.9922 19.0137C37.9922 29.5082 29.4867 38.0137 18.9922 38.0137C8.49768 38.0137 -0.0078125 29.5082 -0.0078125 19.0137C-0.0078125 8.51917 8.50867 0.0136719 18.9922 0.0136719Z" fill="#D3202F"/>
</g>
<mask id="mask2_5090_193891" style="mask-type:luminance" maskUnits="userSpaceOnUse" x="0" y="0" width="39" height="39">
<path d="M38.0078 0.0136719H0.0078125V38.0137H38.0078V0.0136719Z" fill="white"/>
</mask>
<g mask="url(#mask2_5090_193891)">
<path d="M7.83784 9.89269C8.82685 8.76082 10.0247 7.82675 11.3543 7.14543C8.85981 4.23335 6.84883 2.79378 5.9697 2.45312C5.20047 4.79378 6.09059 8.48609 6.92575 11.0465C7.21146 10.6399 7.51916 10.2553 7.83784 9.89269Z" fill="#EA5D0C"/>
</g>
<mask id="mask3_5090_193891" style="mask-type:luminance" maskUnits="userSpaceOnUse" x="0" y="0" width="39" height="39">
<path d="M38.0078 0.0136719H0.0078125V38.0137H38.0078V0.0136719Z" fill="white"/>
</mask>
<g mask="url(#mask3_5090_193891)">
<path d="M30.0858 9.89269C30.3606 10.2004 30.6133 10.53 30.8661 10.8707C31.6793 8.31027 32.5144 4.73884 31.7672 2.45312C30.899 2.79378 28.91 4.21137 26.4375 7.0795C27.8221 7.76082 29.0639 8.71686 30.0858 9.89269Z" fill="#EA5D0C"/>
</g>
<mask id="mask4_5090_193891" style="mask-type:luminance" maskUnits="userSpaceOnUse" x="0" y="0" width="39" height="39">
<path d="M38.0078 0.0136719H0.0078125V38.0137H38.0078V0.0136719Z" fill="white"/>
</mask>
<g mask="url(#mask4_5090_193891)">
<path d="M30.082 9.88972C29.06 8.72489 27.8182 7.76884 26.4336 7.07653C28.9062 4.2084 30.8952 2.77983 31.7633 2.45016C32.5105 4.73587 31.6754 8.31829 30.8622 10.8677C30.6094 10.5161 30.3567 10.1974 30.082 9.88972ZM7.84022 9.88972C7.52154 10.2633 7.21385 10.648 6.93912 11.0436C6.10396 8.48313 5.21384 4.79082 5.98307 2.45016C6.8622 2.79082 8.87318 4.23038 11.3677 7.14247C10.027 7.82379 8.82923 8.74687 7.84022 9.88972ZM33.9171 21.5381C33.4446 18.3842 32.7303 15.637 31.6314 13.3842C32.5435 11.2194 33.1699 8.94467 33.4886 6.615C33.7083 4.75785 33.6314 2.85675 32.9171 1.28533C32.7523 0.933677 32.3677 0.746865 31.9941 0.823788C31.3567 0.944667 30.2468 1.35126 28.7193 2.57104C27.1589 3.86774 25.7523 5.34027 24.5215 6.95565C22.7523 6.4062 20.9171 6.13148 19.06 6.15346C19.027 6.15346 19.0051 6.15346 18.9721 6.15346C18.9391 6.15346 18.9171 6.15346 18.8842 6.15346C16.9831 6.13148 15.093 6.42818 13.2798 7.0106C12.038 5.37324 10.6094 3.87873 9.02703 2.57104C7.49956 1.36225 6.40066 0.955655 5.76329 0.834776C5.37868 0.757853 5.00505 0.944665 4.84022 1.29631C4.12593 2.85675 4.04901 4.74686 4.2578 6.59302C4.58747 8.99961 5.24681 11.3513 6.20286 13.582C5.1589 15.8018 4.46659 18.4721 4.01604 21.5381C3.95011 22.0106 3.92813 22.4831 3.97209 22.9666C5.37868 22.5051 9.93912 21.3952 13.093 25.0326C13.7633 22.3732 16.1919 20.5381 18.9391 20.626C19.9171 20.604 20.8842 20.8238 21.7633 21.2414C23.2578 22.0326 24.3457 23.4062 24.7743 25.0326C27.9721 21.3293 32.6314 22.5381 33.9611 22.9886C34.005 22.5051 33.9831 22.0216 33.9171 21.5381Z" fill="#F28F3C"/>
</g>
<mask id="mask5_5090_193891" style="mask-type:luminance" maskUnits="userSpaceOnUse" x="0" y="0" width="39" height="39">
<path d="M38.0078 0.0136719H0.0078125V38.0137H38.0078V0.0136719Z" fill="white"/>
</mask>
<g mask="url(#mask5_5090_193891)">
<path d="M23.1624 28.5279C23.0086 28.8356 22.9207 29.1653 22.9207 29.5059C22.9097 29.6048 22.8218 29.6818 22.7119 29.6818H22.4921L21.9976 31.0005C21.9866 31.0334 21.9537 31.0664 21.9097 31.0664C21.8877 31.0664 21.8657 31.0554 21.8438 31.0444C21.7449 30.9345 21.6569 30.8136 21.58 30.6818C21.558 30.6598 21.5581 30.6268 21.5581 30.5939V29.0884C20.7009 29.2092 19.8438 29.2642 18.9866 29.2642H18.9317C18.0745 29.2642 17.2174 29.1983 16.3712 29.0774V30.5829C16.3712 30.6158 16.3602 30.6488 16.3493 30.6708C16.2723 30.8027 16.1844 30.9235 16.0855 31.0334C16.0526 31.0664 15.9866 31.0664 15.9537 31.0334C15.9427 31.0224 15.9317 31.0114 15.9317 31.0005L15.4372 29.6818H15.2174C15.1075 29.6818 15.0196 29.6048 15.0086 29.5059C14.9976 29.1653 14.9097 28.8356 14.7668 28.5279C14.7339 28.462 14.7668 28.3851 14.8328 28.3631C14.8438 28.3521 14.8657 28.3521 14.8767 28.3521C15.2833 28.3411 16.1624 28.3301 16.3383 28.3411H17.8877C18.0306 28.0994 18.2613 27.9235 18.5251 27.8246V26.7917C16.6899 26.5609 16.4591 24.8796 16.4921 23.8906C16.5031 23.484 16.8438 23.1543 17.2504 23.1543H20.6899C21.0965 23.1543 21.4372 23.484 21.4482 23.8906C21.4811 24.8906 21.2504 26.5609 19.4152 26.7917V27.8246C19.6789 27.9125 19.8987 28.0994 20.0526 28.3411H21.602C21.7778 28.3301 22.6569 28.3521 23.0635 28.3521C23.1295 28.3521 23.1844 28.418 23.1844 28.484C23.1734 28.495 23.1734 28.5169 23.1624 28.5279Z" fill="#22263F"/>
</g>
<mask id="mask6_5090_193891" style="mask-type:luminance" maskUnits="userSpaceOnUse" x="0" y="0" width="39" height="39">
<path d="M38.0078 0.0136719H0.0078125V38.0137H38.0078V0.0136719Z" fill="white"/>
</mask>
<g mask="url(#mask6_5090_193891)">
<path d="M23.1587 28.5291C23.0049 28.8368 22.917 29.1665 22.917 29.5072C22.906 29.6061 22.8181 29.683 22.7082 29.683H22.4884L21.9939 31.0017C21.9829 31.0346 21.9499 31.0676 21.906 31.0676C21.884 31.0676 21.862 31.0566 21.8401 31.0456C21.7412 30.9357 21.6532 30.8148 21.5763 30.683C21.5543 30.661 21.5543 30.628 21.5543 30.5951V29.0896C20.6972 29.2104 19.8401 29.2654 18.9719 29.2654H18.917C18.0598 29.2654 17.2027 29.1995 16.3565 29.0896V30.5951C16.3565 30.628 16.3456 30.661 16.3346 30.683C16.2576 30.8148 16.1697 30.9357 16.0708 31.0456C16.0379 31.0786 15.9719 31.0786 15.939 31.0456C15.928 31.0346 15.928 31.0236 15.917 31.0126L15.4225 29.694H15.2027C15.0928 29.694 15.0049 29.617 14.9939 29.5181C14.9829 29.1775 14.895 28.8478 14.7521 28.5401C14.7192 28.4742 14.7521 28.3973 14.8181 28.3753C14.8291 28.3643 14.851 28.3643 14.862 28.3643C15.2686 28.3533 16.1478 28.3423 16.3236 28.3533H17.873C18.0159 28.1115 18.2467 27.9357 18.5104 27.8368V26.8039C16.6752 26.5731 16.4445 24.8918 16.4774 23.9028C16.4884 23.4962 16.8291 23.1665 17.2357 23.1665H20.6752C21.0818 23.1665 21.4225 23.4962 21.4335 23.9028C21.4664 24.9028 21.2357 26.5731 19.4005 26.8039V27.8368C19.6642 27.9247 19.895 28.1115 20.0379 28.3533H21.5873C21.7631 28.3423 22.6423 28.3643 23.0488 28.3643C23.1148 28.3643 23.1697 28.4302 23.1697 28.4962C23.1697 28.4962 23.1697 28.5181 23.1587 28.5291ZM20.7851 30.1115C20.7851 30.3313 20.6423 30.5291 20.4335 30.5951C20.4005 30.6061 20.3565 30.6061 20.3236 30.6061C20.0598 30.6061 20.0269 30.2544 19.7412 30.2544C19.4554 30.2544 19.3785 31.1115 18.9609 31.1445H18.9499H18.939C18.928 31.1445 18.928 31.1445 18.917 31.1445C18.5214 31.0896 18.4445 30.2654 18.1697 30.2654C17.884 30.2654 17.851 30.617 17.5873 30.617C17.5543 30.617 17.5104 30.617 17.4774 30.6061C17.2686 30.5401 17.1258 30.3423 17.1258 30.1225V29.8698H20.7851V30.1115ZM33.9609 22.9907C32.6313 22.5401 27.9719 21.3423 24.7741 25.0346C24.3456 23.3973 23.2576 22.0236 21.7631 21.2434C20.884 20.8258 19.917 20.617 18.939 20.628C16.2027 20.5401 13.7631 22.3753 13.0928 25.0346C9.93896 21.3973 5.37852 22.5072 3.97193 22.9687C3.97193 22.9687 3.97193 22.9687 3.96094 22.9687C4.02687 24.1665 4.44445 25.3203 5.13676 26.2984C9.21368 31.9687 14.9719 34.0456 18.884 34.1006H18.939V34.0017V34.0896C18.9499 34.0896 18.9609 34.0896 18.9719 34.0896C18.9939 34.0896 19.0269 34.0896 19.0598 34.0896C20.3016 34.0566 21.5324 33.8698 22.7192 33.5291C26.8071 32.3313 30.3675 29.7819 32.8071 26.2874C33.4884 25.3203 33.895 24.1775 33.9609 22.9907Z" fill="white"/>
</g>
<mask id="mask7_5090_193891" style="mask-type:luminance" maskUnits="userSpaceOnUse" x="0" y="0" width="39" height="39">
<path d="M38.0078 0.0136719H0.0078125V38.0137H38.0078V0.0136719Z" fill="white"/>
</mask>
<g mask="url(#mask7_5090_193891)">
<path d="M20.7843 29.8535V30.1063C20.7843 30.326 20.6415 30.5238 20.4327 30.5898C20.3997 30.6008 20.3558 30.6008 20.3228 30.6008C20.0591 30.6008 20.0261 30.2491 19.7404 30.2491C19.4547 30.2491 19.3777 31.1063 18.9602 31.1392H18.9492H18.9382C18.9272 31.1392 18.9272 31.1392 18.9162 31.1392C18.5206 31.0843 18.4437 30.2601 18.169 30.2601C17.8832 30.2601 17.8503 30.6118 17.5865 30.6118C17.5536 30.6118 17.5096 30.6118 17.4766 30.6008C17.2679 30.5348 17.125 30.337 17.125 30.1173V29.8645H20.7843V29.8535Z" fill="#22263F"/>
</g>
<mask id="mask8_5090_193891" style="mask-type:luminance" maskUnits="userSpaceOnUse" x="0" y="0" width="39" height="39">
<path d="M38.0078 0.0136719H0.0078125V38.0137H38.0078V0.0136719Z" fill="white"/>
</mask>
<g mask="url(#mask8_5090_193891)">
<path d="M27.8751 17.5182L27.7103 16.1996C27.7103 15.9798 27.5344 15.793 27.3037 15.793C27.2597 15.793 27.2048 15.804 27.1608 15.8149C25.7323 16.3534 21.7213 18.1886 22.1718 19.3864C22.5784 20.2106 25.8751 19.3204 27.5125 18.1996C27.7542 18.0677 27.8971 17.793 27.8751 17.5182Z" fill="#22263F"/>
</g>
<mask id="mask9_5090_193891" style="mask-type:luminance" maskUnits="userSpaceOnUse" x="0" y="0" width="39" height="39">
<path d="M38.0078 0.0136719H0.0078125V38.0137H38.0078V0.0136719Z" fill="white"/>
</mask>
<g mask="url(#mask9_5090_193891)">
<path d="M10.1172 17.5182L10.282 16.1996C10.282 15.9798 10.4578 15.793 10.6886 15.793C10.7326 15.793 10.7875 15.804 10.8315 15.8149C12.26 16.3534 16.271 18.1886 15.8205 19.3864C15.4139 20.2106 12.1172 19.3204 10.4798 18.1996C10.26 18.0457 10.1172 17.793 10.1172 17.5182Z" fill="#22263F"/>
</g>
<mask id="mask10_5090_193891" style="mask-type:luminance" maskUnits="userSpaceOnUse" x="0" y="0" width="39" height="39">
<path d="M38.0078 0.0136719H0.0078125V38.0137H38.0078V0.0136719Z" fill="white"/>
</mask>
<g mask="url(#mask10_5090_193891)">
<path d="M15.5168 15.3955C14.7146 15.3296 13.0333 15.1648 12.5058 14.8351C11.8025 14.3955 12.0992 12.3845 14.6157 12.6702C16.5388 12.879 16.7696 14.1977 16.4179 14.945C16.2311 15.2637 15.8795 15.4395 15.5168 15.3955Z" fill="white"/>
</g>
<mask id="mask11_5090_193891" style="mask-type:luminance" maskUnits="userSpaceOnUse" x="0" y="0" width="39" height="39">
<path d="M38.0078 0.0136719H0.0078125V19.0137V38.0137H38.0078V0.0136719Z" fill="white"/>
</mask>
<g mask="url(#mask11_5090_193891)">
<path d="M22.4837 15.3955C23.2859 15.3296 24.9672 15.1648 25.4947 14.8351C26.198 14.3955 25.9013 12.3845 23.3848 12.6702C21.4617 12.879 21.2309 14.1977 21.5826 14.945C21.7694 15.2637 22.121 15.4395 22.4837 15.3955Z" fill="white"/>
</g>
<path d="M45.2766 26.2833L47.5955 23.0223C49.2623 24.3267 51.2913 25.0151 53.5016 25.0151C55.748 25.0151 57.1974 24.1818 57.1974 22.8774C57.1974 21.6454 56.0017 20.9932 53.3204 20.7034C48.1028 20.1236 45.7839 18.3482 45.7839 14.906C45.7839 11.3914 48.9362 9 53.6103 9C56.2915 9 58.9003 9.79713 60.8569 11.174L58.7554 14.3263C57.3061 13.3118 55.6031 12.7683 53.8277 12.7683C51.6174 12.7683 50.1681 13.5654 50.1681 14.7973C50.1681 15.993 51.2189 16.609 53.9001 16.9351C59.0815 17.5511 61.5816 19.5077 61.5816 22.9498C61.5816 26.5732 58.3206 29.0008 53.5378 29.0008C50.4217 28.9646 47.4144 27.9863 45.2766 26.2833Z" fill="white"/>
<path d="M77.56 20.9195V28.5285H73.2845V21.1732C73.2845 19.434 72.3787 18.3832 70.8569 18.3832C69.1539 18.3832 68.0307 19.6151 68.0307 21.4268V28.5285H63.7551V9.43359H68.0307V16.5353C69.0452 15.3758 70.4221 14.7599 72.1613 14.7599C75.4947 14.7599 77.56 17.1513 77.56 20.9195Z" fill="white"/>
<path d="M80.0608 11.3923C80.0608 10.0154 81.1116 9.03711 82.5609 9.03711C84.0102 9.03711 85.061 10.0154 85.061 11.3923C85.061 12.7691 84.0102 13.7112 82.5609 13.7112C81.1116 13.7112 80.0608 12.7691 80.0608 11.3923ZM80.4231 15.0518H84.6987V28.5306H80.4231V15.0518Z" fill="white"/>
<path d="M102.635 21.7891C102.635 25.9197 99.9538 28.8184 96.1855 28.8184C94.3739 28.8184 92.8158 28.1662 91.7288 26.9343L91.439 28.5285H87.7432V9.43359H92.0187V16.3541C93.1057 15.3396 94.5188 14.7961 96.1855 14.7961C99.9538 14.7961 102.635 17.6585 102.635 21.7891ZM95.1348 25.1951C97.0551 25.1951 98.3595 23.8182 98.3595 21.7891C98.3595 19.7601 97.0551 18.3832 95.1348 18.3832C93.2506 18.3832 91.9462 19.7601 91.9462 21.7891C91.9462 23.8182 93.2506 25.1951 95.1348 25.1951Z" fill="white"/>
<path d="M162.233 29.0002C161.243 29.0002 160.379 28.8504 159.641 28.5508C158.903 28.2324 158.282 27.8205 157.778 27.3148C157.292 26.8092 156.941 26.2568 156.725 25.6576L158.615 24.843C158.921 25.4797 159.38 25.9946 159.992 26.3879C160.604 26.7811 161.279 26.9778 162.017 26.9778C162.863 26.9778 163.574 26.8092 164.15 26.4722C164.726 26.1164 165.014 25.6201 165.014 24.9834C165.014 24.4029 164.798 23.9347 164.366 23.5789C163.952 23.2231 163.331 22.9329 162.503 22.7081L161.207 22.343C159.983 22.0059 159.029 21.5003 158.345 20.8261C157.661 20.1333 157.319 19.3561 157.319 18.4947C157.319 17.1651 157.733 16.1352 158.561 15.4048C159.407 14.6558 160.658 14.2812 162.314 14.2812C163.106 14.2812 163.826 14.403 164.474 14.6464C165.122 14.8899 165.68 15.2363 166.148 15.6857C166.616 16.1164 166.958 16.6314 167.174 17.2307L165.284 18.1014C165.05 17.4647 164.663 17.0059 164.123 16.725C163.583 16.4442 162.926 16.3037 162.152 16.3037C161.324 16.3037 160.676 16.491 160.208 16.8655C159.74 17.2213 159.506 17.7269 159.506 18.3823C159.506 18.7569 159.695 19.1127 160.073 19.4497C160.469 19.7681 161.045 20.0303 161.801 20.2363L163.151 20.6014C164.033 20.8261 164.771 21.1632 165.365 21.6126C165.959 22.0434 166.409 22.5396 166.715 23.1014C167.021 23.6632 167.174 24.2624 167.174 24.8991C167.174 25.7418 166.958 26.4722 166.526 27.0901C166.094 27.7081 165.509 28.1856 164.771 28.5227C164.033 28.841 163.187 29.0002 162.233 29.0002Z" fill="#F0F0F0"/>
<path d="M148.921 29.0002C147.589 29.0002 146.41 28.6912 145.384 28.0733C144.358 27.4366 143.557 26.5658 142.981 25.4609C142.405 24.3561 142.117 23.0827 142.117 21.6407C142.117 20.1988 142.396 18.9254 142.954 17.8205C143.53 16.7157 144.331 15.8543 145.357 15.2363C146.383 14.5996 147.553 14.2812 148.867 14.2812C150.163 14.2812 151.324 14.5902 152.35 15.2082C153.376 15.8262 154.159 16.697 154.699 17.8205L152.728 18.7475C152.368 17.9984 151.846 17.4179 151.162 17.0059C150.478 16.5752 149.695 16.3599 148.813 16.3599C147.931 16.3599 147.148 16.5846 146.464 17.034C145.798 17.4835 145.267 18.1108 144.871 18.916C144.493 19.7026 144.304 20.6108 144.304 21.6407C144.304 22.6707 144.493 23.5883 144.871 24.3935C145.267 25.18 145.807 25.798 146.491 26.2474C147.193 26.6969 147.985 26.9216 148.867 26.9216C149.749 26.9216 150.532 26.6875 151.216 26.2193C151.918 25.7512 152.449 25.0958 152.809 24.2531L154.78 25.18C154.24 26.3785 153.457 27.3148 152.431 27.989C151.405 28.6631 150.235 29.0002 148.921 29.0002Z" fill="#F0F0F0"/>
<path d="M133.205 29.0002C131.891 29.0002 130.721 28.6912 129.695 28.0733C128.687 27.4366 127.895 26.5658 127.319 25.4609C126.743 24.3561 126.455 23.0827 126.455 21.6407C126.455 20.1988 126.734 18.9254 127.292 17.8205C127.868 16.7157 128.66 15.8543 129.668 15.2363C130.694 14.5996 131.855 14.2812 133.151 14.2812C134.483 14.2812 135.653 14.5996 136.661 15.2363C137.687 15.8543 138.479 16.7157 139.037 17.8205C139.613 18.9254 139.901 20.1988 139.901 21.6407C139.901 23.0827 139.613 24.3561 139.037 25.4609C138.479 26.5658 137.696 27.4366 136.688 28.0733C135.68 28.6912 134.519 29.0002 133.205 29.0002ZM133.205 26.9216C134.105 26.9216 134.888 26.6969 135.554 26.2474C136.22 25.798 136.742 25.18 137.12 24.3935C137.516 23.607 137.714 22.6894 137.714 21.6407C137.714 20.5921 137.516 19.6745 137.12 18.888C136.742 18.1014 136.211 17.4835 135.527 17.034C134.843 16.5846 134.051 16.3599 133.151 16.3599C132.269 16.3599 131.486 16.5846 130.802 17.034C130.136 17.4835 129.605 18.1014 129.209 18.888C128.831 19.6745 128.642 20.5921 128.642 21.6407C128.642 22.6707 128.831 23.5883 129.209 24.3935C129.605 25.18 130.145 25.798 130.829 26.2474C131.531 26.6969 132.323 26.9216 133.205 26.9216Z" fill="#F0F0F0"/>
<path d="M121.408 28.6627L121.3 26.0504V9H123.46V28.6627H121.408ZM116.737 28.9998C115.531 28.9998 114.469 28.6908 113.551 28.0729C112.633 27.4549 111.913 26.5935 111.391 25.4886C110.887 24.365 110.635 23.0823 110.635 21.6403C110.635 20.1797 110.887 18.8969 111.391 17.7921C111.913 16.6872 112.633 15.8258 113.551 15.2078C114.469 14.5898 115.531 14.2809 116.737 14.2809C117.871 14.2809 118.861 14.5898 119.707 15.2078C120.571 15.8258 121.237 16.6872 121.705 17.7921C122.173 18.8969 122.407 20.1797 122.407 21.6403C122.407 23.0823 122.173 24.365 121.705 25.4886C121.237 26.5935 120.571 27.4549 119.707 28.0729C118.861 28.6908 117.871 28.9998 116.737 28.9998ZM117.223 26.9493C118.015 26.9493 118.717 26.7246 119.329 26.2751C119.941 25.8257 120.418 25.1984 120.76 24.3931C121.12 23.5879 121.3 22.6703 121.3 21.6403C121.3 20.6104 121.12 19.6928 120.76 18.8876C120.418 18.0823 119.941 17.455 119.329 17.0055C118.717 16.5561 118.006 16.3314 117.196 16.3314C116.35 16.3314 115.594 16.5561 114.928 17.0055C114.28 17.455 113.767 18.0823 113.389 18.8876C113.011 19.6928 112.822 20.6104 112.822 21.6403C112.822 22.6703 113.011 23.5879 113.389 24.3931C113.767 25.1984 114.289 25.8257 114.955 26.2751C115.621 26.7246 116.377 26.9493 117.223 26.9493Z" fill="#F0F0F0"/>
</svg>
